# Blender v2.62 (sub 0) OBJ File: 'human_low.blend'
# www.blender.org
mtllib human_low.mtl
o HumanLow_Cube
v 0.204018 0.585980 -0.012714
v 0.182317 0.601477 0.102363
v 0.095652 0.601477 0.102363
v 0.073952 0.585980 -0.012714
v 0.145873 0.101878 -0.041803
v 0.130214 0.101878 0.060545
v 0.216925 0.101878 0.060545
v 0.201267 0.101878 -0.041803
v 0.218556 0.001012 -0.056775
v 0.128584 0.001012 -0.038395
v 0.132578 0.001012 0.114505
v 0.230771 0.001012 0.088310
v 0.137877 0.042153 0.249171
v 0.216730 0.034050 0.235835
v 0.231377 -0.001025 0.224849
v 0.115763 -0.001025 0.242068
v 0.086958 0.549551 0.115117
v 0.191011 0.549551 0.115117
v 0.075994 0.446094 -0.058787
v 0.217823 0.446094 -0.058787
v 0.163228 1.074129 0.137850
v 0.163061 1.061983 -0.071234
v 0.192827 0.939277 -0.069293
v 0.134071 1.232386 0.113104
v 0.156011 1.232386 -0.039588
v 0.150715 1.456774 0.110231
v 0.166990 1.504943 -0.104881
v 0.129298 1.621634 0.090801
v 0.172348 1.627023 -0.075530
v 0.292920 1.288112 -0.068648
v 0.294348 1.261890 0.025875
v 0.224522 1.238198 -0.064175
v 0.216796 1.213177 0.033581
v 0.063203 1.664156 0.010681
v 0.312550 1.261717 -0.078929
v 0.243687 1.181918 -0.078929
v 0.348743 1.005957 0.056556
v 0.312077 0.975234 0.056556
v 0.351491 1.004101 -0.013116
v 0.237228 1.542835 0.067978
v 0.256866 1.547362 -0.064066
v 0.403226 0.892420 0.118543
v 0.287163 0.945350 0.087145
v 0.309371 0.943399 -0.026862
v 0.385931 0.862996 -0.041366
v 0.323792 0.830571 0.118543
v 0.320725 0.856594 -0.039569
v 0.069369 1.712631 0.010681
v 0.060363 1.695242 0.117183
v 0.087972 1.800795 0.119867
v 0.079111 1.917483 0.114259
v 0.087972 1.795755 -0.055406
v 0.079111 1.921374 -0.056769
v -0.000002 1.965068 -0.015152
v -0.000002 1.955331 0.103664
v -0.079111 1.921374 -0.056769
v -0.000002 1.921414 -0.098006
v -0.000002 1.771472 -0.116269
v -0.087972 1.795755 -0.055406
v -0.079111 1.917483 0.114259
v -0.087972 1.800795 0.119867
v -0.000002 1.898342 0.172222
v -0.000002 1.781039 0.186901
v -0.000002 1.685263 0.169948
v -0.060363 1.695242 0.117183
v -0.000002 1.694542 -0.069190
v -0.000002 1.667633 0.090502
v -0.069369 1.712631 0.010681
v -0.320725 0.856594 -0.039569
v -0.323792 0.830571 0.118543
v -0.385930 0.862996 -0.041366
v -0.309371 0.943399 -0.026862
v -0.287162 0.945350 0.087145
v -0.403225 0.892420 0.118543
v -0.256865 1.547362 -0.064066
v -0.237228 1.542835 0.067978
v -0.000002 1.617999 0.095863
v -0.000002 1.621071 -0.090806
v -0.351491 1.004101 -0.013116
v -0.312077 0.975234 0.056556
v -0.348743 1.005957 0.056556
v -0.243687 1.181918 -0.078929
v -0.312550 1.261717 -0.078929
v -0.063202 1.664156 0.010681
v -0.216796 1.213177 0.033581
v -0.224522 1.238198 -0.064175
v -0.294348 1.261890 0.025875
v -0.292920 1.288112 -0.068648
v -0.172347 1.627023 -0.075530
v -0.129298 1.621634 0.090801
v -0.000002 1.455858 0.150260
v -0.000002 1.520128 -0.142679
v -0.166990 1.504943 -0.104881
v -0.150715 1.456774 0.110231
v -0.000002 1.228824 0.147699
v -0.000002 1.228824 -0.082420
v -0.156011 1.232386 -0.039588
v -0.134071 1.232386 0.113104
v -0.192826 0.939277 -0.069293
v -0.000002 0.931916 -0.092766
v -0.000002 0.933496 0.136309
v -0.000002 1.035529 -0.129773
v -0.000002 1.042395 0.146343
v -0.163061 1.061983 -0.071234
v -0.163228 1.074129 0.137850
v -0.217823 0.446094 -0.058787
v -0.075994 0.446094 -0.058787
v -0.191011 0.549551 0.115117
v -0.086958 0.549551 0.115117
v -0.115763 -0.001025 0.242068
v -0.231377 -0.001025 0.224849
v -0.216730 0.034050 0.235835
v -0.137877 0.042153 0.249171
v -0.230771 0.001012 0.088310
v -0.132578 0.001012 0.114505
v -0.128584 0.001012 -0.038395
v -0.218556 0.001012 -0.056775
v -0.201267 0.101878 -0.041803
v -0.216925 0.101878 0.060545
v -0.130214 0.101878 0.060545
v -0.145872 0.101878 -0.041803
v -0.073951 0.585980 -0.012714
v -0.095652 0.601477 0.102363
v -0.182317 0.601477 0.102363
v -0.204017 0.585980 -0.012714
v 0.218556 0.001012 -0.056775
v 0.230771 0.001012 0.088310
v 0.231377 -0.001025 0.224849
v 0.115763 -0.001025 0.242068
v 0.132578 0.001012 0.114505
v 0.128584 0.001012 -0.038395
v 0.060363 1.695242 0.117183
v -0.000002 1.685263 0.169948
v -0.060363 1.695242 0.117183
v -0.000002 1.617999 0.095863
v -0.000002 0.931916 -0.092766
v -0.000002 0.931916 -0.092766
v -0.000002 0.933496 0.136309
v -0.000002 0.933496 0.136309
v -0.230771 0.001012 0.088310
v -0.231377 -0.001025 0.224849
v -0.115763 -0.001025 0.242068
v -0.132578 0.001012 0.114505
v -0.128584 0.001012 -0.038395
v -0.218556 0.001012 -0.056775
vt 0.572936 0.550939
vt 0.600634 0.550939
vt 0.609278 0.500506
vt 0.564292 0.500506
vt 0.565107 0.469728
vt 0.568938 0.375414
vt 0.608365 0.382082
vt 0.608463 0.469727
vt 0.568938 0.521077
vt 0.557881 0.499487
vt 0.615688 0.499487
vt 0.608365 0.517025
vt 0.469727 0.550939
vt 0.382082 0.517025
vt 0.387575 0.499487
vt 0.455845 0.500506
vt 0.469728 0.550939
vt 0.442747 0.500506
vt 0.378966 0.499487
vt 0.375414 0.521077
vt 0.520901 0.550939
vt 0.519197 0.500506
vt 0.528388 0.500506
vt 0.566289 0.442747
vt 0.615386 0.455845
vt 0.615688 0.387575
vt 0.557881 0.378966
vt 0.609278 0.528388
vt 0.564292 0.519197
vt 0.547826 0.800739
vt 0.543479 0.774776
vt 0.595505 0.774776
vt 0.591159 0.800739
vt 0.565107 0.550939
vt 0.608463 0.550939
vt 0.537997 0.723047
vt 0.608912 0.723047
vt 0.602009 0.792990
vt 0.536976 0.792990
vt 0.529394 0.723047
vt 0.442441 0.774776
vt 0.506357 0.792990
vt 0.448819 0.800739
vt 0.499999 0.966748
vt 0.581614 1.037064
vt 0.499999 1.021198
vt 0.534647 0.969638
vt 0.535617 1.030992
vt 0.431075 1.037064
vt 0.499999 0.017764
vt 0.581531 0.030992
vt 0.596413 -0.030362
vt 0.499999 -0.034042
vt 0.431075 0.037064
vt 0.535617 0.030992
vt 0.519794 0.116193
vt 0.443448 0.116193
vt 0.499999 0.114412
vt 0.578006 0.116193
vt 0.499999 0.021198
vt 0.581614 0.037064
vt 0.567036 0.116193
vt 0.444884 0.228387
vt 0.552440 0.252472
vt 0.532087 0.119099
vt 0.479200 0.106589
vt 0.646460 0.144056
vt 0.656275 0.130858
vt 0.621844 0.090959
vt 0.612261 0.119099
vt 0.534324 0.144056
vt 0.471479 0.137179
vt 0.539465 0.130858
vt 0.539465 0.090959
vt 0.612742 0.106589
vt 0.656038 -0.012383
vt 0.674371 0.002979
vt 0.647174 0.137179
vt 0.675745 0.002051
vt 0.654686 -0.028301
vt 0.471722 0.002979
vt 0.506558 0.002051
vt 0.513431 -0.028301
vt 0.471722 -0.012383
vt 0.531601 0.494660
vt 0.564649 0.454599
vt 0.586174 0.537765
vt 0.499999 0.452068
vt 0.499999 0.545403
vt 0.583495 0.252472
vt 0.499999 0.260064
vt 0.499999 0.310536
vt 0.586174 0.313511
vt 0.575357 0.228387
vt 0.564649 0.310817
vt 0.499999 0.309000
vt 0.499999 0.221696
vt 0.618614 0.271417
vt 0.466011 0.271417
vt 0.532033 0.273681
vt 0.628433 0.273681
vt 0.674371 0.471722
vt 0.656038 0.471722
vt 0.643581 0.456428
vt 0.701613 0.440728
vt 0.440728 -0.053790
vt 0.520683 -0.068502
vt 0.471722 0.987617
vt 0.513431 0.971699
vt 0.456428 0.972675
vt 0.692965 0.520683
vt 0.661896 0.440728
vt 0.660363 0.519785
vt 0.701613 0.946210
vt 0.643581 0.972675
vt 0.661896 0.915285
vt 0.519785 0.928297
vt 0.440728 0.915285
vt 0.692965 -0.068502
vt 0.660363 -0.071703
vt 0.499999 0.965958
vt 0.596413 0.969638
vt 0.431845 0.966748
vt 0.546383 0.965958
vt 0.452068 0.309000
vt 0.494660 0.332078
vt 0.494660 0.356316
vt 0.454749 0.333817
vt 0.545403 0.310536
vt 0.534595 0.347271
vt 0.499999 0.454749
vt 0.534684 0.494660
vt 0.530182 0.441409
vt 0.499999 0.415026
vt 0.530182 0.347621
vt 0.547465 0.400560
vt 0.499999 0.390519
vt 0.499999 0.342632
vt 0.519939 0.398947
vt 0.436981 0.400560
vt 0.441409 0.347621
vt 0.558134 0.385736
vt 0.520674 0.466723
vt 0.440007 0.463518
vt 0.499999 0.448146
vt 0.542684 0.463518
vt 0.499999 0.483939
vt 0.499999 0.554639
vt 0.499999 0.509830
vt 0.542684 0.520674
vt 0.542684 0.440007
vt 0.499999 0.445724
vt 0.499999 0.385736
vt 0.499999 0.456096
vt 0.542684 0.466723
vt 0.547465 0.398947
vt 0.457316 0.463518
vt 0.452535 0.400560
vt 0.452535 0.398947
vt 0.457316 0.466723
vt 0.457316 0.440007
vt 0.457316 0.520674
vt 0.469819 0.347621
vt 0.469819 0.441409
vt 0.465316 0.494660
vt 0.416505 0.252472
vt 0.421995 0.116193
vt 0.432964 0.116193
vt 0.424643 0.228387
vt 0.408842 0.800739
vt 0.452174 0.800739
vt 0.418386 1.037064
vt 0.397991 0.792990
vt 0.403587 0.969638
vt 0.463024 0.792990
vt 0.324255 0.002051
vt 0.345314 -0.028301
vt 0.339637 -0.071703
vt 0.307035 -0.068502
vt 0.298387 0.946210
vt 0.338104 0.915285
vt 0.356419 0.972675
vt 0.307035 0.520683
vt 0.339637 0.519785
vt 0.338104 0.440728
vt 0.298387 0.440728
vt 0.325629 0.002979
vt 0.298387 -0.053790
vt 0.356419 -0.027325
vt 0.343962 -0.012383
vt 0.387739 0.119099
vt 0.353540 0.144056
vt 0.371567 0.273681
vt 0.381386 0.271417
vt 0.352826 0.137179
vt 0.387258 0.106589
vt 0.413826 0.313511
vt 0.435351 0.310817
vt 0.413826 0.537765
vt 0.468399 0.494660
vt 0.435351 0.454599
vt 0.343725 0.130858
vt 0.378157 0.090959
vt 0.418386 0.037064
vt 0.418470 0.030992
vt 0.403587 -0.030362
vt 0.462003 0.723047
vt 0.391088 0.723047
vt 0.399367 0.550939
vt 0.427064 0.550939
vt 0.456521 0.774776
vt 0.404495 0.774776
vt 0.391537 0.550939
vt 0.434893 0.550939
vt 0.390722 0.528388
vt 0.435708 0.519197
vt 0.433711 0.442747
vt 0.384614 0.455845
vt 0.442119 0.378966
vt 0.384312 0.387575
vt 0.378966 0.499488
vt 0.387575 0.499488
vt 0.431062 0.521077
vt 0.391635 0.517025
vt 0.384312 0.499488
vt 0.442119 0.499488
vt 0.434893 0.469728
vt 0.391537 0.469727
vt 0.391635 0.382082
vt 0.431062 0.375414
vt 0.435708 0.500506
vt 0.390722 0.500506
vt 0.000000 0.000000
vt 1.000000 1.000000
vt 1.000000 0.000000
vn -0.685110 -0.025697 -0.727958
vn 0.659749 0.060396 -0.749016
vn 0.625782 0.144200 -0.766503
vn -0.769707 0.076785 -0.633747
vn -0.872768 0.243995 0.422742
vn -0.444716 0.404462 0.799097
vn 0.555589 0.398206 0.729881
vn 0.866329 0.339610 0.366192
vn -0.803735 -0.024689 0.594440
vn 0.852992 0.050050 0.519486
vn 0.982727 0.183996 -0.018616
vn -0.993805 0.109714 -0.017121
vn -0.001862 -0.999939 -0.009278
vn -0.001343 -0.999969 -0.006684
vn -0.003143 -0.999847 -0.015595
vn 0.000000 -1.000000 0.000000
vn -0.633931 0.035615 0.772546
vn -0.664296 0.049471 0.745811
vn 0.640370 0.095737 0.762047
vn 0.671072 0.135624 0.728843
vn -0.705832 0.027314 -0.707816
vn 0.700522 0.114536 -0.704367
vn 0.812006 0.105869 -0.573931
vn -0.771722 -0.049837 -0.633992
vn 0.000000 -0.091739 0.995758
vn 0.703635 0.072146 0.706839
vn 0.000000 -0.016938 0.999847
vn 0.790979 -0.037233 -0.610675
vn 0.757408 0.134129 -0.638997
vn 0.000000 0.023164 -0.999725
vn 0.000000 -0.138676 -0.990326
vn 0.852260 0.019257 -0.522721
vn 0.738701 0.045015 0.672506
vn 0.000000 0.000000 -1.000000
vn 0.000000 0.036256 0.999329
vn 0.340678 -0.029908 0.939665
vn 0.220099 0.003265 -0.975463
vn -0.716605 -0.115635 -0.687796
vn -0.714927 -0.229316 0.660482
vn 0.691305 0.306650 -0.654225
vn 0.659291 0.338328 -0.671438
vn -0.531785 -0.243843 -0.810999
vn 0.762322 0.122166 0.635517
vn -0.714316 0.369274 0.594440
vn 0.656575 0.381878 0.650410
vn 0.808924 0.139042 -0.571184
vn -0.659200 -0.082522 -0.747398
vn 0.709494 0.702322 0.057680
vn 0.341441 0.662313 0.666860
vn 0.426496 0.753441 -0.500381
vn 0.000000 0.514786 0.857295
vn 0.000000 0.513565 -0.858028
vn 0.000000 0.073885 -0.997253
vn 0.000000 0.108921 0.994018
vn 0.727012 0.364238 0.582018
vn 0.788842 0.389050 -0.475723
vn -0.795312 0.292001 0.531175
vn 0.705008 -0.121769 0.698630
vn 0.723472 -0.335246 -0.603442
vn -0.369762 -0.733757 0.569933
vn -0.346110 -0.618976 -0.705008
vn -0.659993 -0.312723 -0.683065
vn -0.527818 -0.200079 0.825434
vn 0.000000 -0.024628 0.999695
vn 0.941313 -0.303537 -0.147526
vn 0.000000 -0.839839 0.542772
vn 0.000000 -0.320017 -0.947386
vn 0.408155 -0.912656 0.020936
vn 0.000000 -0.999725 0.022919
vn 0.854335 -0.208655 0.475967
vn 0.898587 -0.051424 0.435713
vn 0.000000 -0.061892 0.998077
vn 0.000000 -0.209418 0.977813
vn 0.868068 -0.151097 -0.472823
vn 0.000000 -0.306314 -0.951903
vn 0.747093 0.505142 -0.432020
vn 0.762261 0.505142 0.404645
vn 0.000000 0.391644 0.920103
vn 0.000000 0.948271 0.317454
vn 0.000000 0.498764 -0.866726
vn 0.000000 0.990631 -0.136418
vn -0.762261 0.505142 0.404645
vn -0.898587 -0.051424 0.435713
vn -0.868099 -0.151097 -0.472823
vn -0.747093 0.505142 -0.432020
vn -0.941313 -0.303507 -0.147526
vn -0.854335 -0.208655 0.475936
vn -0.408155 -0.912656 0.020936
vn -0.220099 0.003265 -0.975463
vn -0.852260 0.019257 -0.522721
vn -0.738701 0.045015 0.672506
vn -0.340709 -0.029908 0.939665
vn -0.709525 0.702292 0.057680
vn 0.633931 0.035646 0.772546
vn 0.771722 -0.049837 -0.633992
vn 0.659993 -0.312723 -0.683065
vn 0.527818 -0.200079 0.825434
vn -0.671072 0.135624 0.728843
vn -0.703635 0.072146 0.706839
vn -0.812006 0.105869 -0.573931
vn -0.790979 -0.037233 -0.610675
vn -0.808924 0.139042 -0.571184
vn 0.659200 -0.082522 -0.747398
vn 0.346110 -0.618976 -0.705008
vn -0.723472 -0.335246 -0.603442
vn 0.795312 0.292001 0.531175
vn 0.369762 -0.733757 0.569933
vn -0.705008 -0.121769 0.698630
vn 0.714316 0.369274 0.594440
vn -0.656575 0.381878 0.650410
vn 0.716605 -0.115635 -0.687796
vn -0.691305 0.306650 -0.654225
vn -0.788842 0.389050 -0.475723
vn -0.727012 0.364238 0.582018
vn -0.762322 0.122166 0.635517
vn 0.714927 -0.229316 0.660482
vn -0.426496 0.753441 -0.500381
vn -0.341441 0.662313 0.666860
vn 0.531785 -0.243843 -0.810999
vn -0.659291 0.338328 -0.671438
vn -0.757408 0.134129 -0.638997
vn 0.664296 0.049471 0.745811
vn 0.705832 0.027314 -0.707816
vn -0.700522 0.114536 -0.704367
vn -0.640370 0.095737 0.762047
vn 0.685110 -0.025697 -0.727958
vn 0.872768 0.243995 0.422742
vn -0.866329 0.339610 0.366192
vn -0.659749 0.060396 -0.749016
vn 0.001862 -0.999939 -0.009278
vn 0.001343 -0.999969 -0.006684
vn 0.003143 -0.999847 -0.015595
vn -0.625782 0.144200 -0.766503
vn -0.982727 0.183996 -0.018616
vn 0.993805 0.109714 -0.017121
vn 0.769707 0.076785 -0.633747
vn 0.444716 0.404462 0.799097
vn 0.803735 -0.024689 0.594440
vn -0.852992 0.050050 0.519486
vn -0.555589 0.398206 0.729881
usemtl Material
s 1
f 5/1/1 8/2/2 9/3/3
f 5/1/1 9/3/3 10/4/4
f 6/5/5 13/6/6 14/7/7
f 6/5/5 14/7/7 7/8/8
f 13/9/6 16/10/9 15/11/10
f 13/9/6 15/11/10 14/12/7
f 7/13/8 14/14/7 15/15/10
f 7/13/8 15/15/10 12/16/11
f 6/17/5 11/18/12 16/19/9
f 6/17/5 16/19/9 13/20/6
f 5/21/1 10/22/4 11/18/12
f 5/21/1 11/18/12 6/17/5
f 7/13/8 12/16/11 9/23/3
f 7/13/8 9/23/3 8/21/2
f 130/24/13 127/25/14 128/26/15
f 130/24/13 128/26/15 129/27/15
f 126/28/16 127/25/14 130/24/13
f 126/28/16 130/24/13 131/29/16
f 3/30/17 17/31/18 18/32/19
f 3/30/17 18/32/19 2/33/20
f 17/31/18 6/34/5 7/35/8
f 17/31/18 7/35/8 18/32/19
f 8/2/2 5/1/1 19/36/21
f 8/2/2 19/36/21 20/37/22
f 1/38/23 20/37/22 19/36/21
f 1/38/23 19/36/21 4/39/24
f 7/13/8 8/21/2 20/40/22
f 7/13/8 20/40/22 18/41/19
f 5/21/1 6/17/5 17/41/18
f 5/21/1 17/41/18 19/40/21
f 1/42/23 2/43/20 18/41/19
f 1/42/23 18/41/19 20/40/22
f 3/43/17 4/42/24 17/41/18
f 4/42/24 19/40/21 17/41/18
f 138/44/25 21/45/26 103/46/27
f 23/47/28 22/48/29 21/49/26
f 102/50/30 22/51/29 23/52/28
f 102/50/30 23/52/28 136/53/31
f 21/54/26 22/55/29 25/56/32
f 21/54/26 25/56/32 24/57/33
f 22/51/29 102/50/30 96/58/34
f 22/51/29 96/58/34 25/59/32
f 103/60/27 21/61/26 24/62/33
f 103/60/27 24/62/33 95/58/35
f 26/63/36 27/64/37 32/65/38
f 26/63/36 32/65/38 33/66/39
f 30/67/40 35/68/41 36/69/42
f 30/67/40 36/69/42 32/70/38
f 30/71/40 31/72/43 35/73/41
f 32/65/38 36/74/42 33/66/39
f 33/75/39 38/76/44 37/77/45
f 33/75/39 37/77/45 31/78/43
f 35/68/41 39/79/46 44/80/47
f 35/68/41 44/80/47 36/69/42
f 31/72/43 37/81/45 39/82/46
f 31/72/43 39/82/46 35/73/41
f 36/74/42 44/83/47 38/84/44
f 36/74/42 38/84/44 33/66/39
f 34/85/48 28/86/49 29/87/50
f 28/86/49 34/85/48 135/88/51
f 29/87/50 78/89/52 34/85/48
f 27/90/37 92/91/53 78/92/52
f 27/90/37 78/92/52 29/93/50
f 26/94/36 28/95/49 135/96/51
f 26/94/36 135/96/51 91/97/54
f 40/98/55 28/95/49 26/94/36
f 40/99/55 31/72/43 30/71/40
f 40/99/55 30/71/40 41/100/56
f 29/93/50 41/101/56 27/90/37
f 26/94/36 33/75/39 31/78/43
f 26/94/36 31/78/43 40/98/55
f 27/90/37 41/101/56 30/67/40
f 27/90/37 30/67/40 32/70/38
f 37/102/45 38/103/44 43/104/57
f 37/102/45 43/104/57 42/105/58
f 39/82/46 37/81/45 42/106/58
f 39/82/46 42/106/58 45/107/59
f 38/108/44 44/109/47 43/110/57
f 45/111/59 42/105/58 46/112/60
f 45/111/59 46/112/60 47/113/61
f 42/114/58 43/115/57 46/116/60
f 43/110/57 44/109/47 47/117/61
f 43/110/57 47/117/61 46/118/60
f 39/79/46 45/119/59 47/120/61
f 39/79/46 47/120/61 44/80/47
f 1/42/23 23/47/28 21/49/26
f 1/42/23 21/49/26 2/43/20
f 1/38/23 4/39/24 100/121/62
f 1/38/23 100/121/62 23/122/28
f 2/33/20 21/45/26 101/44/63
f 2/33/20 101/44/63 3/30/17
f 3/43/17 101/123/63 100/124/62
f 3/43/17 100/124/62 4/42/24
f 77/125/64 34/126/48 48/127/65
f 77/125/64 48/127/65 67/128/66
f 34/126/48 78/129/52 66/130/67
f 34/126/48 66/130/67 48/127/65
f 24/57/33 25/56/32 27/64/37
f 24/57/33 27/64/37 26/63/36
f 24/62/33 26/94/36 91/97/54
f 24/62/33 91/97/54 95/58/35
f 27/90/37 25/59/32 96/58/34
f 27/90/37 96/58/34 92/91/53
f 67/131/66 48/132/65 49/133/68
f 67/131/66 49/133/68 133/134/69
f 132/135/70 50/136/71 63/137/72
f 132/135/70 63/137/72 64/138/73
f 48/127/65 52/139/74 50/140/71
f 48/127/65 50/140/71 132/141/70
f 48/127/65 66/130/67 58/142/75
f 48/127/65 58/142/75 52/139/74
f 50/140/71 52/139/74 53/143/76
f 50/140/71 53/143/76 51/144/77
f 62/145/78 51/146/77 55/147/79
f 57/148/80 54/149/81 53/150/76
f 51/151/77 53/150/76 54/149/81
f 51/151/77 54/149/81 55/152/79
f 58/153/75 57/154/80 53/155/76
f 58/153/75 53/155/76 52/156/74
f 63/137/72 50/136/71 51/146/77
f 63/137/72 51/146/77 62/145/78
f 63/137/72 62/145/78 60/157/82
f 63/137/72 60/157/82 61/158/83
f 58/153/75 59/159/84 56/160/85
f 58/153/75 56/160/85 57/154/80
f 60/161/82 55/152/79 54/149/81
f 60/161/82 54/149/81 56/162/85
f 57/148/80 56/162/85 54/149/81
f 62/145/78 55/147/79 60/157/82
f 61/140/83 60/144/82 56/143/85
f 61/140/83 56/143/85 59/139/84
f 68/127/86 59/139/84 58/142/75
f 68/127/86 58/142/75 66/130/67
f 68/127/86 65/141/87 61/140/83
f 68/127/86 61/140/83 59/139/84
f 65/163/87 64/138/73 63/137/72
f 65/163/87 63/137/72 61/158/83
f 67/131/66 133/134/69 134/164/88
f 67/131/66 134/164/88 68/165/86
f 93/166/89 92/91/53 96/58/34
f 93/166/89 96/58/34 97/167/90
f 98/168/91 95/58/35 91/97/54
f 98/168/91 91/97/54 94/169/92
f 98/57/91 94/63/92 93/64/89
f 98/57/91 93/64/89 97/56/90
f 84/126/93 68/127/86 66/130/67
f 84/126/93 66/130/67 78/129/52
f 77/125/64 67/128/66 68/127/86
f 77/125/64 68/127/86 84/126/93
f 123/43/94 122/42/95 137/124/96
f 123/43/94 137/124/96 139/123/97
f 124/170/98 123/171/94 139/44/97
f 124/170/98 139/44/97 105/172/99
f 125/173/100 99/174/101 137/121/96
f 125/173/100 137/121/96 122/175/95
f 125/42/100 124/43/98 105/49/99
f 125/42/100 105/49/99 99/47/101
f 79/176/102 72/177/103 69/178/104
f 79/176/102 69/178/104 71/179/105
f 73/110/106 70/118/107 69/117/104
f 73/110/106 69/117/104 72/109/103
f 74/180/108 70/181/107 73/182/106
f 71/183/105 69/184/104 70/185/107
f 71/183/105 70/185/107 74/186/108
f 80/108/109 73/110/106 72/109/103
f 79/82/102 71/107/105 74/106/108
f 79/82/102 74/106/108 81/81/110
f 81/187/110 74/188/108 73/189/106
f 81/187/110 73/189/106 80/190/109
f 93/166/89 86/191/111 88/192/112
f 93/166/89 88/192/112 75/193/113
f 94/169/92 76/194/114 87/195/115
f 94/169/92 87/195/115 85/196/116
f 89/197/117 93/166/89 75/193/113
f 76/99/114 75/100/113 88/71/112
f 76/99/114 88/71/112 87/72/115
f 76/194/114 94/169/92 90/198/118
f 94/169/92 91/97/54 135/96/51
f 94/169/92 135/96/51 90/198/118
f 93/166/89 89/197/117 78/92/52
f 93/166/89 78/92/52 92/91/53
f 89/199/117 84/200/93 78/89/52
f 90/201/118 135/88/51 84/200/93
f 84/200/93 89/199/117 90/201/118
f 82/74/119 85/66/116 80/84/109
f 82/74/119 80/84/109 72/83/103
f 87/72/115 83/73/120 79/82/102
f 87/72/115 79/82/102 81/81/110
f 83/202/120 82/203/119 72/177/103
f 83/202/120 72/177/103 79/176/102
f 85/196/116 87/195/115 81/187/110
f 85/196/116 81/187/110 80/190/109
f 86/65/111 85/66/116 82/74/119
f 88/71/112 83/73/120 87/72/115
f 88/192/112 86/191/111 82/203/119
f 88/192/112 82/203/119 83/202/120
f 94/63/92 85/66/116 86/65/111
f 94/63/92 86/65/111 93/64/89
f 103/60/27 95/58/35 98/168/91
f 103/60/27 98/168/91 105/204/99
f 104/205/121 97/167/90 96/58/34
f 104/205/121 96/58/34 102/50/30
f 105/54/99 98/57/91 97/56/90
f 105/54/99 97/56/90 104/55/121
f 102/50/30 136/53/31 99/206/101
f 102/50/30 99/206/101 104/205/121
f 99/47/101 105/49/99 104/48/121
f 138/44/25 103/46/27 105/172/99
f 122/42/95 109/41/122 107/40/123
f 123/43/94 109/41/122 122/42/95
f 125/42/100 106/40/124 108/41/125
f 125/42/100 108/41/125 124/43/98
f 121/21/126 107/40/123 109/41/122
f 121/21/126 109/41/122 120/17/127
f 119/13/128 108/41/125 106/40/124
f 119/13/128 106/40/124 118/21/129
f 125/173/100 122/175/95 107/207/123
f 125/173/100 107/207/123 106/208/124
f 118/209/129 106/208/124 107/207/123
f 118/209/129 107/207/123 121/210/126
f 109/211/122 108/212/125 119/213/128
f 109/211/122 119/213/128 120/214/127
f 123/171/94 124/170/98 108/212/125
f 123/171/94 108/212/125 109/211/122
f 117/215/16 116/216/16 115/217/130
f 117/215/16 115/217/130 114/218/131
f 115/217/130 110/219/132 111/220/132
f 115/217/130 111/220/132 114/218/131
f 119/13/128 118/21/129 145/23/133
f 119/13/128 145/23/133 140/16/134
f 121/21/126 120/17/127 143/18/135
f 121/21/126 143/18/135 144/22/136
f 120/17/127 113/20/137 142/221/138
f 120/17/127 142/221/138 143/18/135
f 119/13/128 140/16/134 141/222/139
f 119/13/128 141/222/139 112/14/140
f 113/223/137 112/224/140 141/225/139
f 113/223/137 141/225/139 142/226/138
f 120/227/127 119/228/128 112/229/140
f 120/227/127 112/229/140 113/230/137
f 121/210/126 144/231/136 145/232/133
f 121/210/126 145/232/133 118/209/129
f 28/233/49 40/234/55 29/235/50
f 29/233/50 40/235/55 41/234/56
f 75/233/113 76/235/114 89/234/117
f 76/233/114 90/234/118 89/235/117
